<mxfile host="Electron" agent="Mozilla/5.0 (Windows NT 10.0; Win64; x64) AppleWebKit/537.36 (KHTML, like Gecko) draw.io/27.0.9 Chrome/134.0.6998.205 Electron/35.4.0 Safari/537.36" version="27.0.9">
  <diagram name="Page-1" id="KLeRq7SbqEW-ghjTklGn">
    <mxGraphModel dx="992" dy="596" grid="1" gridSize="10" guides="1" tooltips="1" connect="1" arrows="1" fold="1" page="1" pageScale="1" pageWidth="827" pageHeight="1169" math="0" shadow="0">
      <root>
        <mxCell id="0" />
        <mxCell id="1" parent="0" />
        <mxCell id="CKs5mwjbu9Z6SbV2TXMd-3" value="airlines" style="swimlane;fontStyle=0;childLayout=stackLayout;horizontal=1;startSize=26;fillColor=#fff2cc;horizontalStack=0;resizeParent=1;resizeParentMax=0;resizeLast=0;collapsible=1;marginBottom=0;html=1;strokeColor=#d6b656;" vertex="1" parent="1">
          <mxGeometry y="70" width="140" height="78" as="geometry" />
        </mxCell>
        <mxCell id="CKs5mwjbu9Z6SbV2TXMd-4" value="&lt;b&gt;&lt;u&gt;IATA_CODE (PK)&lt;/u&gt;&lt;/b&gt;" style="text;strokeColor=none;fillColor=none;align=left;verticalAlign=top;spacingLeft=4;spacingRight=4;overflow=hidden;rotatable=0;points=[[0,0.5],[1,0.5]];portConstraint=eastwest;whiteSpace=wrap;html=1;" vertex="1" parent="CKs5mwjbu9Z6SbV2TXMd-3">
          <mxGeometry y="26" width="140" height="26" as="geometry" />
        </mxCell>
        <mxCell id="CKs5mwjbu9Z6SbV2TXMd-5" value="AIRLINE" style="text;strokeColor=none;fillColor=none;align=left;verticalAlign=top;spacingLeft=4;spacingRight=4;overflow=hidden;rotatable=0;points=[[0,0.5],[1,0.5]];portConstraint=eastwest;whiteSpace=wrap;html=1;" vertex="1" parent="CKs5mwjbu9Z6SbV2TXMd-3">
          <mxGeometry y="52" width="140" height="26" as="geometry" />
        </mxCell>
        <mxCell id="CKs5mwjbu9Z6SbV2TXMd-7" value="airports" style="swimlane;fontStyle=0;childLayout=stackLayout;horizontal=1;startSize=26;fillColor=#fff2cc;horizontalStack=0;resizeParent=1;resizeParentMax=0;resizeLast=0;collapsible=1;marginBottom=0;html=1;strokeColor=#d6b656;glass=0;" vertex="1" parent="1">
          <mxGeometry x="530" y="70" width="140" height="208" as="geometry">
            <mxRectangle x="300" y="70" width="80" height="30" as="alternateBounds" />
          </mxGeometry>
        </mxCell>
        <mxCell id="CKs5mwjbu9Z6SbV2TXMd-8" value="&lt;b&gt;&lt;u&gt;IATA_CODE (PK)&lt;/u&gt;&lt;/b&gt;" style="text;strokeColor=none;fillColor=none;align=left;verticalAlign=top;spacingLeft=4;spacingRight=4;overflow=hidden;rotatable=0;points=[[0,0.5],[1,0.5]];portConstraint=eastwest;whiteSpace=wrap;html=1;" vertex="1" parent="CKs5mwjbu9Z6SbV2TXMd-7">
          <mxGeometry y="26" width="140" height="26" as="geometry" />
        </mxCell>
        <mxCell id="CKs5mwjbu9Z6SbV2TXMd-9" value="AIRPORT" style="text;strokeColor=none;fillColor=none;align=left;verticalAlign=top;spacingLeft=4;spacingRight=4;overflow=hidden;rotatable=0;points=[[0,0.5],[1,0.5]];portConstraint=eastwest;whiteSpace=wrap;html=1;" vertex="1" parent="CKs5mwjbu9Z6SbV2TXMd-7">
          <mxGeometry y="52" width="140" height="26" as="geometry" />
        </mxCell>
        <mxCell id="CKs5mwjbu9Z6SbV2TXMd-10" value="CITY&lt;div&gt;&lt;br&gt;&lt;/div&gt;" style="text;strokeColor=none;fillColor=none;align=left;verticalAlign=top;spacingLeft=4;spacingRight=4;overflow=hidden;rotatable=0;points=[[0,0.5],[1,0.5]];portConstraint=eastwest;whiteSpace=wrap;html=1;" vertex="1" parent="CKs5mwjbu9Z6SbV2TXMd-7">
          <mxGeometry y="78" width="140" height="26" as="geometry" />
        </mxCell>
        <mxCell id="CKs5mwjbu9Z6SbV2TXMd-16" value="&lt;div&gt;STATE&lt;/div&gt;&lt;div&gt;&lt;br&gt;&lt;/div&gt;" style="text;strokeColor=none;fillColor=none;align=left;verticalAlign=top;spacingLeft=4;spacingRight=4;overflow=hidden;rotatable=0;points=[[0,0.5],[1,0.5]];portConstraint=eastwest;whiteSpace=wrap;html=1;" vertex="1" parent="CKs5mwjbu9Z6SbV2TXMd-7">
          <mxGeometry y="104" width="140" height="26" as="geometry" />
        </mxCell>
        <mxCell id="CKs5mwjbu9Z6SbV2TXMd-17" value="&lt;div&gt;COUNTRY&lt;/div&gt;" style="text;strokeColor=none;fillColor=none;align=left;verticalAlign=top;spacingLeft=4;spacingRight=4;overflow=hidden;rotatable=0;points=[[0,0.5],[1,0.5]];portConstraint=eastwest;whiteSpace=wrap;html=1;" vertex="1" parent="CKs5mwjbu9Z6SbV2TXMd-7">
          <mxGeometry y="130" width="140" height="26" as="geometry" />
        </mxCell>
        <mxCell id="CKs5mwjbu9Z6SbV2TXMd-18" value="&lt;div&gt;LATITUDE&lt;/div&gt;" style="text;strokeColor=none;fillColor=none;align=left;verticalAlign=top;spacingLeft=4;spacingRight=4;overflow=hidden;rotatable=0;points=[[0,0.5],[1,0.5]];portConstraint=eastwest;whiteSpace=wrap;html=1;" vertex="1" parent="CKs5mwjbu9Z6SbV2TXMd-7">
          <mxGeometry y="156" width="140" height="26" as="geometry" />
        </mxCell>
        <mxCell id="CKs5mwjbu9Z6SbV2TXMd-26" value="&lt;div&gt;LONGITUDE&lt;/div&gt;" style="text;strokeColor=none;fillColor=none;align=left;verticalAlign=top;spacingLeft=4;spacingRight=4;overflow=hidden;rotatable=0;points=[[0,0.5],[1,0.5]];portConstraint=eastwest;whiteSpace=wrap;html=1;" vertex="1" parent="CKs5mwjbu9Z6SbV2TXMd-7">
          <mxGeometry y="182" width="140" height="26" as="geometry" />
        </mxCell>
        <mxCell id="CKs5mwjbu9Z6SbV2TXMd-11" value="flights" style="swimlane;fontStyle=0;childLayout=stackLayout;horizontal=1;startSize=26;fillColor=#fff2cc;horizontalStack=0;resizeParent=1;resizeParentMax=0;resizeLast=0;collapsible=1;marginBottom=0;html=1;strokeColor=#d6b656;" vertex="1" parent="1">
          <mxGeometry x="220" y="70" width="170" height="832" as="geometry" />
        </mxCell>
        <mxCell id="CKs5mwjbu9Z6SbV2TXMd-12" value="&lt;b&gt;&lt;u&gt;FLIGHT_NUMBER (PK)&lt;/u&gt;&lt;/b&gt;" style="text;strokeColor=none;fillColor=none;align=left;verticalAlign=top;spacingLeft=4;spacingRight=4;overflow=hidden;rotatable=0;points=[[0,0.5],[1,0.5]];portConstraint=eastwest;whiteSpace=wrap;html=1;" vertex="1" parent="CKs5mwjbu9Z6SbV2TXMd-11">
          <mxGeometry y="26" width="170" height="26" as="geometry" />
        </mxCell>
        <mxCell id="CKs5mwjbu9Z6SbV2TXMd-13" value="YEAR" style="text;strokeColor=none;fillColor=none;align=left;verticalAlign=top;spacingLeft=4;spacingRight=4;overflow=hidden;rotatable=0;points=[[0,0.5],[1,0.5]];portConstraint=eastwest;whiteSpace=wrap;html=1;" vertex="1" parent="CKs5mwjbu9Z6SbV2TXMd-11">
          <mxGeometry y="52" width="170" height="26" as="geometry" />
        </mxCell>
        <mxCell id="CKs5mwjbu9Z6SbV2TXMd-14" value="MONTH" style="text;strokeColor=none;fillColor=none;align=left;verticalAlign=top;spacingLeft=4;spacingRight=4;overflow=hidden;rotatable=0;points=[[0,0.5],[1,0.5]];portConstraint=eastwest;whiteSpace=wrap;html=1;" vertex="1" parent="CKs5mwjbu9Z6SbV2TXMd-11">
          <mxGeometry y="78" width="170" height="26" as="geometry" />
        </mxCell>
        <mxCell id="CKs5mwjbu9Z6SbV2TXMd-27" value="DAY" style="text;strokeColor=none;fillColor=none;align=left;verticalAlign=top;spacingLeft=4;spacingRight=4;overflow=hidden;rotatable=0;points=[[0,0.5],[1,0.5]];portConstraint=eastwest;whiteSpace=wrap;html=1;" vertex="1" parent="CKs5mwjbu9Z6SbV2TXMd-11">
          <mxGeometry y="104" width="170" height="26" as="geometry" />
        </mxCell>
        <mxCell id="CKs5mwjbu9Z6SbV2TXMd-28" value="DAY_OF_WEEK" style="text;strokeColor=none;fillColor=none;align=left;verticalAlign=top;spacingLeft=4;spacingRight=4;overflow=hidden;rotatable=0;points=[[0,0.5],[1,0.5]];portConstraint=eastwest;whiteSpace=wrap;html=1;" vertex="1" parent="CKs5mwjbu9Z6SbV2TXMd-11">
          <mxGeometry y="130" width="170" height="26" as="geometry" />
        </mxCell>
        <mxCell id="CKs5mwjbu9Z6SbV2TXMd-29" value="AIRLINE" style="text;strokeColor=none;fillColor=none;align=left;verticalAlign=top;spacingLeft=4;spacingRight=4;overflow=hidden;rotatable=0;points=[[0,0.5],[1,0.5]];portConstraint=eastwest;whiteSpace=wrap;html=1;" vertex="1" parent="CKs5mwjbu9Z6SbV2TXMd-11">
          <mxGeometry y="156" width="170" height="26" as="geometry" />
        </mxCell>
        <mxCell id="CKs5mwjbu9Z6SbV2TXMd-30" value="TAIL_NUMBER" style="text;strokeColor=none;fillColor=none;align=left;verticalAlign=top;spacingLeft=4;spacingRight=4;overflow=hidden;rotatable=0;points=[[0,0.5],[1,0.5]];portConstraint=eastwest;whiteSpace=wrap;html=1;" vertex="1" parent="CKs5mwjbu9Z6SbV2TXMd-11">
          <mxGeometry y="182" width="170" height="26" as="geometry" />
        </mxCell>
        <mxCell id="CKs5mwjbu9Z6SbV2TXMd-31" value="ORIGINAL_AIRPORT" style="text;strokeColor=none;fillColor=none;align=left;verticalAlign=top;spacingLeft=4;spacingRight=4;overflow=hidden;rotatable=0;points=[[0,0.5],[1,0.5]];portConstraint=eastwest;whiteSpace=wrap;html=1;" vertex="1" parent="CKs5mwjbu9Z6SbV2TXMd-11">
          <mxGeometry y="208" width="170" height="26" as="geometry" />
        </mxCell>
        <mxCell id="CKs5mwjbu9Z6SbV2TXMd-32" value="DESTINATION_AIRPORT" style="text;strokeColor=none;fillColor=none;align=left;verticalAlign=top;spacingLeft=4;spacingRight=4;overflow=hidden;rotatable=0;points=[[0,0.5],[1,0.5]];portConstraint=eastwest;whiteSpace=wrap;html=1;" vertex="1" parent="CKs5mwjbu9Z6SbV2TXMd-11">
          <mxGeometry y="234" width="170" height="26" as="geometry" />
        </mxCell>
        <mxCell id="CKs5mwjbu9Z6SbV2TXMd-33" value="SCHEDULED_DEPARTURE" style="text;strokeColor=none;fillColor=none;align=left;verticalAlign=top;spacingLeft=4;spacingRight=4;overflow=hidden;rotatable=0;points=[[0,0.5],[1,0.5]];portConstraint=eastwest;whiteSpace=wrap;html=1;" vertex="1" parent="CKs5mwjbu9Z6SbV2TXMd-11">
          <mxGeometry y="260" width="170" height="26" as="geometry" />
        </mxCell>
        <mxCell id="CKs5mwjbu9Z6SbV2TXMd-34" value="DEPARTURE_TIME" style="text;strokeColor=none;fillColor=none;align=left;verticalAlign=top;spacingLeft=4;spacingRight=4;overflow=hidden;rotatable=0;points=[[0,0.5],[1,0.5]];portConstraint=eastwest;whiteSpace=wrap;html=1;" vertex="1" parent="CKs5mwjbu9Z6SbV2TXMd-11">
          <mxGeometry y="286" width="170" height="26" as="geometry" />
        </mxCell>
        <mxCell id="CKs5mwjbu9Z6SbV2TXMd-35" value="DEPARTURE_DELAY" style="text;strokeColor=none;fillColor=none;align=left;verticalAlign=top;spacingLeft=4;spacingRight=4;overflow=hidden;rotatable=0;points=[[0,0.5],[1,0.5]];portConstraint=eastwest;whiteSpace=wrap;html=1;" vertex="1" parent="CKs5mwjbu9Z6SbV2TXMd-11">
          <mxGeometry y="312" width="170" height="26" as="geometry" />
        </mxCell>
        <mxCell id="CKs5mwjbu9Z6SbV2TXMd-36" value="TAXI_OUT" style="text;strokeColor=none;fillColor=none;align=left;verticalAlign=top;spacingLeft=4;spacingRight=4;overflow=hidden;rotatable=0;points=[[0,0.5],[1,0.5]];portConstraint=eastwest;whiteSpace=wrap;html=1;" vertex="1" parent="CKs5mwjbu9Z6SbV2TXMd-11">
          <mxGeometry y="338" width="170" height="26" as="geometry" />
        </mxCell>
        <mxCell id="CKs5mwjbu9Z6SbV2TXMd-37" value="WHEELS_OF" style="text;strokeColor=none;fillColor=none;align=left;verticalAlign=top;spacingLeft=4;spacingRight=4;overflow=hidden;rotatable=0;points=[[0,0.5],[1,0.5]];portConstraint=eastwest;whiteSpace=wrap;html=1;" vertex="1" parent="CKs5mwjbu9Z6SbV2TXMd-11">
          <mxGeometry y="364" width="170" height="26" as="geometry" />
        </mxCell>
        <mxCell id="CKs5mwjbu9Z6SbV2TXMd-38" value="SCHEDULED_TIME" style="text;strokeColor=none;fillColor=none;align=left;verticalAlign=top;spacingLeft=4;spacingRight=4;overflow=hidden;rotatable=0;points=[[0,0.5],[1,0.5]];portConstraint=eastwest;whiteSpace=wrap;html=1;" vertex="1" parent="CKs5mwjbu9Z6SbV2TXMd-11">
          <mxGeometry y="390" width="170" height="26" as="geometry" />
        </mxCell>
        <mxCell id="CKs5mwjbu9Z6SbV2TXMd-39" value="ELAPSED_TIME&lt;span style=&quot;white-space: pre;&quot;&gt;&#x9;&lt;/span&gt;" style="text;strokeColor=none;fillColor=none;align=left;verticalAlign=top;spacingLeft=4;spacingRight=4;overflow=hidden;rotatable=0;points=[[0,0.5],[1,0.5]];portConstraint=eastwest;whiteSpace=wrap;html=1;" vertex="1" parent="CKs5mwjbu9Z6SbV2TXMd-11">
          <mxGeometry y="416" width="170" height="26" as="geometry" />
        </mxCell>
        <mxCell id="CKs5mwjbu9Z6SbV2TXMd-40" value="AIR_TIME" style="text;strokeColor=none;fillColor=none;align=left;verticalAlign=top;spacingLeft=4;spacingRight=4;overflow=hidden;rotatable=0;points=[[0,0.5],[1,0.5]];portConstraint=eastwest;whiteSpace=wrap;html=1;" vertex="1" parent="CKs5mwjbu9Z6SbV2TXMd-11">
          <mxGeometry y="442" width="170" height="26" as="geometry" />
        </mxCell>
        <mxCell id="CKs5mwjbu9Z6SbV2TXMd-41" value="DISTANCE" style="text;strokeColor=none;fillColor=none;align=left;verticalAlign=top;spacingLeft=4;spacingRight=4;overflow=hidden;rotatable=0;points=[[0,0.5],[1,0.5]];portConstraint=eastwest;whiteSpace=wrap;html=1;" vertex="1" parent="CKs5mwjbu9Z6SbV2TXMd-11">
          <mxGeometry y="468" width="170" height="26" as="geometry" />
        </mxCell>
        <mxCell id="CKs5mwjbu9Z6SbV2TXMd-42" value="WHEELS_ON" style="text;strokeColor=none;fillColor=none;align=left;verticalAlign=top;spacingLeft=4;spacingRight=4;overflow=hidden;rotatable=0;points=[[0,0.5],[1,0.5]];portConstraint=eastwest;whiteSpace=wrap;html=1;" vertex="1" parent="CKs5mwjbu9Z6SbV2TXMd-11">
          <mxGeometry y="494" width="170" height="26" as="geometry" />
        </mxCell>
        <mxCell id="CKs5mwjbu9Z6SbV2TXMd-43" value="TAXI_IN" style="text;strokeColor=none;fillColor=none;align=left;verticalAlign=top;spacingLeft=4;spacingRight=4;overflow=hidden;rotatable=0;points=[[0,0.5],[1,0.5]];portConstraint=eastwest;whiteSpace=wrap;html=1;" vertex="1" parent="CKs5mwjbu9Z6SbV2TXMd-11">
          <mxGeometry y="520" width="170" height="26" as="geometry" />
        </mxCell>
        <mxCell id="CKs5mwjbu9Z6SbV2TXMd-44" value="SCHEDULED_ARRIVAL" style="text;strokeColor=none;fillColor=none;align=left;verticalAlign=top;spacingLeft=4;spacingRight=4;overflow=hidden;rotatable=0;points=[[0,0.5],[1,0.5]];portConstraint=eastwest;whiteSpace=wrap;html=1;" vertex="1" parent="CKs5mwjbu9Z6SbV2TXMd-11">
          <mxGeometry y="546" width="170" height="26" as="geometry" />
        </mxCell>
        <mxCell id="CKs5mwjbu9Z6SbV2TXMd-55" value="ARRIVAL_TIME" style="text;strokeColor=none;fillColor=none;align=left;verticalAlign=top;spacingLeft=4;spacingRight=4;overflow=hidden;rotatable=0;points=[[0,0.5],[1,0.5]];portConstraint=eastwest;whiteSpace=wrap;html=1;" vertex="1" parent="CKs5mwjbu9Z6SbV2TXMd-11">
          <mxGeometry y="572" width="170" height="26" as="geometry" />
        </mxCell>
        <mxCell id="CKs5mwjbu9Z6SbV2TXMd-45" value="ARRIVAL_DELAY" style="text;strokeColor=none;fillColor=none;align=left;verticalAlign=top;spacingLeft=4;spacingRight=4;overflow=hidden;rotatable=0;points=[[0,0.5],[1,0.5]];portConstraint=eastwest;whiteSpace=wrap;html=1;" vertex="1" parent="CKs5mwjbu9Z6SbV2TXMd-11">
          <mxGeometry y="598" width="170" height="26" as="geometry" />
        </mxCell>
        <mxCell id="CKs5mwjbu9Z6SbV2TXMd-46" value="DIVERTED" style="text;strokeColor=none;fillColor=none;align=left;verticalAlign=top;spacingLeft=4;spacingRight=4;overflow=hidden;rotatable=0;points=[[0,0.5],[1,0.5]];portConstraint=eastwest;whiteSpace=wrap;html=1;" vertex="1" parent="CKs5mwjbu9Z6SbV2TXMd-11">
          <mxGeometry y="624" width="170" height="26" as="geometry" />
        </mxCell>
        <mxCell id="CKs5mwjbu9Z6SbV2TXMd-47" value="CANCELLED" style="text;strokeColor=none;fillColor=none;align=left;verticalAlign=top;spacingLeft=4;spacingRight=4;overflow=hidden;rotatable=0;points=[[0,0.5],[1,0.5]];portConstraint=eastwest;whiteSpace=wrap;html=1;" vertex="1" parent="CKs5mwjbu9Z6SbV2TXMd-11">
          <mxGeometry y="650" width="170" height="26" as="geometry" />
        </mxCell>
        <mxCell id="CKs5mwjbu9Z6SbV2TXMd-48" value="CANCELLATION_REASON" style="text;strokeColor=none;fillColor=none;align=left;verticalAlign=top;spacingLeft=4;spacingRight=4;overflow=hidden;rotatable=0;points=[[0,0.5],[1,0.5]];portConstraint=eastwest;whiteSpace=wrap;html=1;" vertex="1" parent="CKs5mwjbu9Z6SbV2TXMd-11">
          <mxGeometry y="676" width="170" height="26" as="geometry" />
        </mxCell>
        <mxCell id="CKs5mwjbu9Z6SbV2TXMd-49" value="AIR_SYSTEM_DELAY" style="text;strokeColor=none;fillColor=none;align=left;verticalAlign=top;spacingLeft=4;spacingRight=4;overflow=hidden;rotatable=0;points=[[0,0.5],[1,0.5]];portConstraint=eastwest;whiteSpace=wrap;html=1;" vertex="1" parent="CKs5mwjbu9Z6SbV2TXMd-11">
          <mxGeometry y="702" width="170" height="26" as="geometry" />
        </mxCell>
        <mxCell id="CKs5mwjbu9Z6SbV2TXMd-50" value="SECURITY_DELAY&lt;span style=&quot;white-space: pre;&quot;&gt;&#x9;&lt;/span&gt;" style="text;strokeColor=none;fillColor=none;align=left;verticalAlign=top;spacingLeft=4;spacingRight=4;overflow=hidden;rotatable=0;points=[[0,0.5],[1,0.5]];portConstraint=eastwest;whiteSpace=wrap;html=1;" vertex="1" parent="CKs5mwjbu9Z6SbV2TXMd-11">
          <mxGeometry y="728" width="170" height="26" as="geometry" />
        </mxCell>
        <mxCell id="CKs5mwjbu9Z6SbV2TXMd-51" value="AIRLINE_DELAY" style="text;strokeColor=none;fillColor=none;align=left;verticalAlign=top;spacingLeft=4;spacingRight=4;overflow=hidden;rotatable=0;points=[[0,0.5],[1,0.5]];portConstraint=eastwest;whiteSpace=wrap;html=1;" vertex="1" parent="CKs5mwjbu9Z6SbV2TXMd-11">
          <mxGeometry y="754" width="170" height="26" as="geometry" />
        </mxCell>
        <mxCell id="CKs5mwjbu9Z6SbV2TXMd-52" value="LATE_AIRCRAFT_DELAY" style="text;strokeColor=none;fillColor=none;align=left;verticalAlign=top;spacingLeft=4;spacingRight=4;overflow=hidden;rotatable=0;points=[[0,0.5],[1,0.5]];portConstraint=eastwest;whiteSpace=wrap;html=1;" vertex="1" parent="CKs5mwjbu9Z6SbV2TXMd-11">
          <mxGeometry y="780" width="170" height="26" as="geometry" />
        </mxCell>
        <mxCell id="CKs5mwjbu9Z6SbV2TXMd-53" value="WEATHER_DELAY" style="text;strokeColor=none;fillColor=none;align=left;verticalAlign=top;spacingLeft=4;spacingRight=4;overflow=hidden;rotatable=0;points=[[0,0.5],[1,0.5]];portConstraint=eastwest;whiteSpace=wrap;html=1;" vertex="1" parent="CKs5mwjbu9Z6SbV2TXMd-11">
          <mxGeometry y="806" width="170" height="26" as="geometry" />
        </mxCell>
        <mxCell id="CKs5mwjbu9Z6SbV2TXMd-58" value="" style="edgeStyle=entityRelationEdgeStyle;fontSize=12;html=1;endArrow=ERoneToMany;rounded=0;" edge="1" parent="1" source="CKs5mwjbu9Z6SbV2TXMd-4" target="CKs5mwjbu9Z6SbV2TXMd-29">
          <mxGeometry width="100" height="100" relative="1" as="geometry">
            <mxPoint x="120" y="240" as="sourcePoint" />
            <mxPoint x="220" y="140" as="targetPoint" />
          </mxGeometry>
        </mxCell>
        <mxCell id="CKs5mwjbu9Z6SbV2TXMd-59" value="" style="edgeStyle=entityRelationEdgeStyle;fontSize=12;html=1;endArrow=ERoneToMany;rounded=0;" edge="1" parent="1" source="CKs5mwjbu9Z6SbV2TXMd-8" target="CKs5mwjbu9Z6SbV2TXMd-31">
          <mxGeometry width="100" height="100" relative="1" as="geometry">
            <mxPoint x="220" y="330" as="sourcePoint" />
            <mxPoint x="320" y="230" as="targetPoint" />
          </mxGeometry>
        </mxCell>
        <mxCell id="CKs5mwjbu9Z6SbV2TXMd-60" value="" style="edgeStyle=entityRelationEdgeStyle;fontSize=12;html=1;endArrow=ERoneToMany;rounded=0;" edge="1" parent="1" source="CKs5mwjbu9Z6SbV2TXMd-8" target="CKs5mwjbu9Z6SbV2TXMd-32">
          <mxGeometry width="100" height="100" relative="1" as="geometry">
            <mxPoint x="220" y="330" as="sourcePoint" />
            <mxPoint x="320" y="230" as="targetPoint" />
          </mxGeometry>
        </mxCell>
      </root>
    </mxGraphModel>
  </diagram>
</mxfile>
